<?xml version="1.0" standalone="no"?>
<!DOCTYPE svg PUBLIC "-//W3C//DTD SVG 20010904//EN"
 "http://www.w3.org/TR/2001/REC-SVG-20010904/DTD/svg10.dtd">
<svg version="1.0" xmlns="http://www.w3.org/2000/svg"
 width="1024.000000pt" height="1024.000000pt" viewBox="0 0 1024.000000 1024.000000"
 preserveAspectRatio="xMidYMid meet">

<g transform="translate(0.000000,1024.000000) scale(0.100000,-0.100000)"
fill="#d8d4d4cc" stroke="none">
<path d="M4689 7932 l-76 -3 -28 -52 c-45 -83 -221 -401 -374 -675 -78 -139
-152 -275 -166 -302 l-25 -50 -480 0 -480 0 0 260 0 260 -285 0 -285 0 0 -259
0 -260 -302 -3 c-288 -3 -306 -5 -360 -26 -83 -34 -150 -99 -195 -189 l-38
-76 -3 -168 c-3 -93 -1 -180 2 -194 l6 -25 963 3 c802 3 961 6 959 17 -5 22 8
61 18 55 6 -4 10 9 10 29 0 34 -1 35 -42 38 -32 2 -44 8 -46 21 -4 18 7 19
185 17 103 -1 223 -1 266 -1 l77 1 0 65 0 65 -105 0 c-83 0 -105 3 -105 14 0
19 65 27 192 26 57 -1 331 -1 611 -1 l507 1 0 54 0 54 98 7 c109 7 355 -8 476
-31 359 -67 698 -235 971 -481 195 -176 334 -357 445 -578 214 -427 262 -883
140 -1343 -119 -444 -402 -833 -793 -1087 -80 -51 -327 -176 -402 -203 -21 -8
304 -10 1140 -9 l1170 2 53 22 c113 46 209 149 249 267 17 48 18 155 21 1671
2 1081 -1 1636 -8 1668 -25 120 -115 232 -227 285 -55 26 -67 27 -242 30
l-183 4 4 124 4 124 -338 0 -338 0 0 -125 0 -125 -418 0 -419 0 -118 218 c-65
119 -177 323 -250 452 -72 129 -153 274 -179 323 -26 48 -53 87 -59 87 -99 3
-1143 4 -1198 2z m-2007 -1198 c-5 -24 -8 -27 -20 -20 -14 8 -2 48 12 43 6 -2
9 -13 8 -23z m-232 -94 c0 -11 -7 -20 -15 -20 -8 0 -15 9 -15 20 0 11 7 20 15
20 8 0 15 -9 15 -20z m1448 3 c-5 -25 -28 -28 -28 -4 0 12 6 21 16 21 9 0 14
-7 12 -17z m-578 -88 c0 -8 -4 -15 -10 -15 -5 0 -10 7 -10 15 0 8 5 15 10 15
6 0 10 -7 10 -15z m-198 -23 c6 -42 0 -52 -33 -52 -26 0 -29 3 -29 33 0 40 6
47 36 47 16 0 23 -7 26 -28z m478 9 c0 -30 -11 -51 -26 -51 -9 0 -14 12 -14
35 0 28 4 35 20 35 13 0 20 -7 20 -19z m-1550 -126 l0 -95 -180 0 c-153 0
-180 2 -180 15 0 12 14 15 70 15 l70 0 0 65 0 65 -80 0 c-64 0 -80 3 -80 15 0
13 28 15 190 15 l190 0 0 -95z m548 68 c-5 -25 -28 -28 -28 -4 0 12 6 21 16
21 9 0 14 -7 12 -17z m-98 -73 c0 -20 -5 -30 -15 -30 -10 0 -15 10 -15 30 0
20 5 30 15 30 10 0 15 -10 15 -30z m-210 -16 c0 -8 -4 -14 -10 -14 -5 0 -10 9
-10 21 0 11 5 17 10 14 6 -3 10 -13 10 -21z m1591 -7 c-8 -8 -11 -7 -11 4 0
20 13 34 18 19 3 -7 -1 -17 -7 -23z m4386 -27 c56 -34 58 -43 57 -294 l-1
-229 -31 -28 -32 -29 -258 0 -258 0 -30 31 -29 30 0 228 c0 176 3 234 14 254
26 49 65 56 311 56 206 1 228 -1 257 -19z m-5407 -20 c0 -11 -4 -20 -10 -20
-5 0 -10 9 -10 20 0 11 5 20 10 20 6 0 10 -9 10 -20z m-620 -87 c0 -19 -3 -24
-10 -17 -6 6 -8 18 -4 27 9 24 14 21 14 -10z m570 -38 c0 -8 -7 -15 -15 -15
-8 0 -15 7 -15 15 0 8 7 15 15 15 8 0 15 -7 15 -15z m467 -21 c-9 -9 -28 6
-21 18 4 6 10 6 17 -1 6 -6 8 -13 4 -17z"/>
<path d="M964 6413 c3 -38 6 -69 6 -69 0 -1 43 -2 95 -3 l95 -2 0 71 0 70
-101 0 -102 0 7 -67z"/>
<path d="M4200 6400 l0 -80 -90 0 c-49 0 -90 -4 -90 -9 0 -6 -32 -7 -75 -4
l-75 6 0 -65 0 -65 77 -7 c42 -3 156 -6 255 -6 l178 0 0 85 0 85 253 2 252 3
3 68 3 67 -346 0 -345 0 0 -80z"/>
<path d="M5002 6422 c2 -34 6 -64 9 -66 3 -3 31 -8 62 -12 l57 -7 0 29 c0 60
10 75 44 72 l31 -3 3 -152 3 -153 -416 0 -415 0 0 -55 0 -55 88 -2 c48 -1 122
0 165 1 l77 3 0 -71 c0 -64 2 -71 20 -71 12 0 20 7 20 16 0 9 6 14 13 11 6 -2
11 -10 9 -16 -1 -8 91 -11 338 -11 l340 0 0 81 0 82 68 -6 c37 -3 114 -18 171
-32 81 -21 105 -24 111 -14 16 25 260 -77 393 -165 301 -201 515 -521 593
-886 32 -150 28 -465 -6 -555 -9 -23 -11 -24 -42 -10 -25 10 -32 19 -31 37 1
13 8 74 15 135 25 231 -19 466 -130 691 -127 259 -337 471 -606 612 -102 54
-97 37 7 -20 224 -123 405 -311 529 -548 117 -224 153 -388 145 -657 -8 -233
-34 -346 -124 -532 -110 -229 -309 -435 -553 -575 -131 -75 -356 -142 -530
-158 -161 -14 -160 -14 -173 20 l-11 30 -161 2 c-88 2 -251 3 -362 3 l-203 0
0 -82 0 -83 190 0 190 0 0 -30 c0 -29 0 -29 68 -32 l67 -3 3 -52 3 -53 70 0
c65 0 69 -1 69 -22 l0 -23 -733 1 -732 1 -3 21 c-3 22 -2 22 157 22 l161 0 0
80 0 80 -95 0 -95 0 0 78 0 79 -107 6 c-58 4 -441 7 -850 7 l-743 0 0 -85 0
-85 -95 0 -95 0 0 85 0 85 -195 0 -195 0 0 -61 c0 -52 3 -62 20 -66 23 -6 27
-23 5 -23 -19 0 -19 -13 1 -80 31 -104 109 -193 214 -244 l65 -31 1842 -3
1842 -2 3 72 3 73 70 8 c211 23 472 123 671 255 369 247 619 618 716 1063 20
91 22 132 22 329 0 194 -3 239 -22 324 -51 229 -157 470 -289 656 -38 52 -122
149 -188 215 -308 309 -715 498 -1122 522 -100 6 -103 7 -103 30 0 22 -2 23
-87 23 -49 0 -126 3 -172 7 l-84 6 5 -61z m85 -4 c-3 -8 -6 -5 -6 6 -1 11 2
17 5 13 3 -3 4 -12 1 -19z m-557 -307 c0 -6 -4 -13 -10 -16 -5 -3 -10 1 -10 9
0 9 5 16 10 16 6 0 10 -4 10 -9z m540 -111 c0 -11 -7 -20 -15 -20 -8 0 -15 9
-15 20 0 11 7 20 15 20 8 0 15 -9 15 -20z m-172 -28 c-5 -27 -28 -26 -28 2 0
19 4 24 15 19 9 -3 15 -12 13 -21z m-1828 -2644 c0 -16 -4 -28 -9 -28 -16 0
-21 17 -15 50 8 37 24 22 24 -22z m290 12 c0 -11 -7 -20 -15 -20 -15 0 -21 21
-8 33 12 13 23 7 23 -13z m440 -6 c0 -30 -23 -28 -28 2 -3 16 -1 16 7 4 9 -13
11 -13 11 3 0 9 2 17 5 17 3 0 5 -12 5 -26z m-1480 -28 c0 -8 -3 -22 -6 -31
-9 -23 -23 0 -17 26 6 22 23 26 23 5z m-542 -74 c3 -49 2 -52 -21 -52 -28 0
-37 16 -37 65 0 33 11 44 40 40 11 -1 16 -17 18 -53z m1302 28 c0 -19 -7 -20
-95 -20 -88 0 -95 1 -95 20 0 19 7 20 95 20 88 0 95 -1 95 -20z m-810 -44 c0
-8 -4 -17 -9 -21 -12 -7 -24 12 -16 25 9 15 25 12 25 -4z m1070 -31 c0 -8 -4
-15 -10 -15 -5 0 -10 7 -10 15 0 8 5 15 10 15 6 0 10 -7 10 -15z m-960 -65 c0
-25 -18 -36 -26 -16 -8 21 3 49 16 41 5 -3 10 -15 10 -25z m1536 14 c-3 -9 -6
-20 -6 -25 0 -5 -4 -9 -10 -9 -11 0 -14 33 -3 43 12 13 25 7 19 -9z m-798 -21
c-2 -10 -10 -18 -18 -18 -8 0 -16 8 -18 18 -2 12 3 17 18 17 15 0 20 -5 18
-17z m592 3 c0 -8 -4 -18 -10 -21 -5 -3 -10 3 -10 14 0 12 5 21 10 21 6 0 10
-6 10 -14z m-825 -61 c0 -19 -8 -20 -209 -23 -124 -1 -214 2 -219 7 -5 5 -7
17 -4 26 6 13 33 15 219 13 205 -3 213 -4 213 -23z m615 -5 c0 -29 -2 -30 -44
-30 -31 0 -46 5 -50 16 -11 27 -7 33 27 37 68 8 67 9 67 -23z m-1320 -75 c0
-8 0 -18 1 -22 0 -4 -4 -9 -10 -11 -6 -2 -11 8 -11 22 0 14 5 26 10 26 6 0 10
-7 10 -15z m1450 -10 c0 -26 -14 -33 -25 -15 -9 14 1 40 15 40 5 0 10 -11 10
-25z"/>
<path d="M370 6243 l0 -68 132 2 133 1 3 66 3 66 -136 0 -135 0 0 -67z"/>
<path d="M820 6080 l0 -60 70 0 70 0 0 -70 0 -70 105 0 105 0 0 130 0 130
-175 0 -175 0 0 -60z"/>
<path d="M1733 6133 l-133 -4 0 -54 0 -55 145 0 145 0 0 38 c0 43 -10 83 -19
80 -3 -1 -66 -4 -138 -5z"/>
<path d="M1940 6075 l0 -55 253 0 254 0 -3 23 c-1 12 -3 37 -3 55 l-1 32 -250
0 -250 0 0 -55z m92 -37 c-9 -9 -12 -7 -12 12 0 19 3 21 12 12 9 -9 9 -15 0
-24z"/>
<path d="M2724 6053 c4 -43 7 -98 6 -122 0 -26 5 -48 12 -53 7 -4 39 -8 71 -8
55 0 57 1 57 27 l0 26 23 -21 c20 -19 35 -22 100 -22 l77 0 0 70 0 70 245 0
245 0 0 -25 c0 -27 -9 -32 -28 -13 -9 9 -12 -2 -12 -50 l0 -62 85 0 84 0 3 68
3 67 32 3 32 3 3 -63 3 -63 43 -3 44 -3 -4 65 c-1 37 1 67 6 69 5 2 11 29 14
60 l4 57 -577 0 -577 0 6 -77z m571 -13 c3 -5 -1 -10 -9 -10 -9 0 -16 5 -16
10 0 6 4 10 9 10 6 0 13 -4 16 -10z"/>
<path d="M3880 5940 l0 -60 170 0 170 0 0 60 0 60 -170 0 -170 0 0 -60z"/>
<path d="M344 5796 c-3 -8 -4 -31 -2 -52 3 -35 6 -39 38 -46 19 -4 76 -5 126
-2 l92 6 5 33 c12 73 9 75 -129 75 -97 0 -126 -3 -130 -14z"/>
<path d="M1150 5756 c0 -53 1 -54 33 -59 17 -3 188 -6 379 -6 317 0 348 1 358
17 8 15 11 15 19 2 9 -12 39 -14 187 -12 98 1 186 0 196 -4 16 -5 18 -17 18
-90 l0 -84 183 2 182 3 3 86 3 86 307 -4 c169 -3 313 -6 320 -8 8 -3 12 -29
12 -83 l0 -79 160 -1 159 0 3 81 3 82 160 5 160 5 3 58 3 57 -1426 0 -1425 0
0 -54z m330 9 c0 -8 -4 -15 -10 -15 -5 0 -10 7 -10 15 0 8 5 15 10 15 6 0 10
-7 10 -15z m-200 -10 c0 -8 -4 -15 -10 -15 -5 0 -10 7 -10 15 0 8 5 15 10 15
6 0 10 -7 10 -15z m570 -26 c0 -5 -7 -9 -15 -9 -15 0 -20 12 -9 23 8 8 24 -1
24 -14z m2044 -10 c-10 -16 -24 -9 -24 12 0 18 2 19 15 9 8 -7 12 -16 9 -21z
m-404 -91 c0 -7 -4 -19 -9 -27 -11 -17 -25 3 -17 24 7 18 26 20 26 3z m50 -28
c0 -5 -5 -10 -11 -10 -5 0 -7 5 -4 10 3 6 8 10 11 10 2 0 4 -4 4 -10z"/>
<path d="M4370 5750 l0 -59 -157 -3 -158 -3 -3 -82 -3 -83 508 -2 508 -3 3
-82 3 -82 134 4 c129 4 135 3 135 -15 0 -20 -12 -20 -645 -20 l-646 0 3 -72 3
-73 145 0 c448 -1 508 -4 506 -22 -3 -15 -15 -18 -87 -19 -112 -1 -107 0 -111
-36 -4 -46 -32 -44 -36 2 l-3 35 -259 1 c-226 0 -260 -2 -260 -15 0 -12 -3
-12 -12 -3 -7 7 -20 12 -30 12 -15 0 -18 -9 -18 -65 l0 -65 204 0 c154 0 206
3 210 13 5 10 7 10 12 0 4 -9 39 -13 124 -13 93 0 120 -3 130 -15 7 -9 10 -18
7 -21 -3 -3 -344 -6 -757 -6 l-751 0 3 -51 3 -52 383 -3 c374 -2 382 -3 382
-22 0 -20 -7 -20 -300 -20 -260 0 -300 -2 -300 -15 0 -8 -7 -15 -15 -15 -9 0
-18 7 -21 15 -5 12 -32 15 -160 15 l-154 0 0 70 0 70 -132 1 c-73 1 -366 3
-651 5 l-518 3 3 -57 c3 -50 6 -57 26 -60 30 -4 28 -20 -3 -28 -23 -6 -25 -11
-25 -60 l0 -54 145 0 c137 0 145 1 145 19 0 25 20 38 21 14 1 -10 1 -21 0 -25
0 -5 44 -8 99 -8 82 0 100 3 100 15 0 8 7 15 15 15 8 0 15 -7 15 -15 0 -13 73
-15 588 -16 323 -1 601 -2 617 -2 17 1 220 1 453 2 l422 1 0 59 c0 67 5 71 98
71 l52 0 0 -65 0 -65 90 0 c83 0 90 -1 90 -20 0 -20 -7 -20 -340 -20 l-340 0
0 -75 0 -75 85 0 c96 0 92 3 97 -95 l3 -50 211 -2 212 -3 6 30 c8 41 36 40 36
-1 l0 -31 95 7 c92 7 95 6 95 -14 0 -21 -3 -21 -256 -21 l-256 0 6 -32 c9 -47
87 -203 140 -283 25 -37 46 -69 46 -71 0 -2 -155 -4 -345 -4 -296 0 -345 2
-345 15 0 11 18 15 83 17 l82 3 3 68 3 67 -396 0 -395 0 0 -80 0 -80 -44 0
c-24 0 -64 -3 -89 -6 l-46 -7 -3 84 -3 84 -543 3 -542 2 0 -70 0 -70 50 0 50
0 0 40 c0 35 3 40 23 40 19 0 22 -5 22 -37 l0 -38 100 0 c87 0 100 -2 103 -17
3 -16 -17 -18 -275 -20 l-278 -3 -3 -35 c-2 -19 -1 -54 3 -77 l6 -43 247 7
c136 3 249 10 250 15 2 4 8 8 13 8 6 0 7 -4 4 -10 -4 -6 23 -10 74 -10 l80 0
7 45 c3 25 4 57 1 72 -7 39 1 53 33 53 25 0 28 -3 34 -52 3 -29 6 -68 6 -85
l0 -33 89 0 c102 0 108 5 97 85 -7 45 6 61 39 49 18 -7 20 -56 3 -83 -23 -37
-4 -51 66 -51 l65 0 3 78 3 77 81 3 c94 3 94 3 94 -100 l0 -58 823 0 c613 0
826 3 835 12 9 9 24 3 65 -25 316 -209 743 -268 1094 -150 258 86 472 262 613
502 80 139 121 269 140 446 43 397 -160 817 -504 1040 -187 121 -319 168 -538
190 l-58 5 0 -60 0 -60 -195 0 -195 0 0 44 c0 82 23 76 -306 76 l-294 0 0 -60z
m316 -36 c5 -21 11 -25 30 -21 18 3 24 0 24 -14 0 -17 -9 -19 -86 -19 -64 0
-85 3 -82 13 3 6 18 13 35 15 23 2 33 9 37 28 8 32 34 31 42 -2z m914 -319 l0
-55 -70 0 -70 0 0 55 0 55 70 0 70 0 0 -55z m-400 9 c0 -8 -9 -14 -20 -14 -19
0 -27 19 -14 33 10 9 34 -4 34 -19z m-1005 -154 c0 -7 -6 -15 -12 -17 -8 -3
-13 4 -13 17 0 13 5 20 13 18 6 -3 12 -11 12 -18z m185 -1 c0 -5 -4 -9 -10 -9
-5 0 -10 7 -10 16 0 8 5 12 10 9 6 -3 10 -10 10 -16z m-52 -23 c3 -15 1 -16
-17 -6 -12 6 -19 16 -15 21 9 15 28 5 32 -15z m595 -38 c7 -21 -4 -38 -24 -38
-14 0 -19 7 -19 25 0 18 5 25 19 25 11 0 21 -6 24 -12z m177 -20 c0 -10 -7
-18 -15 -18 -8 0 -15 8 -15 18 0 10 7 19 15 19 8 0 15 -9 15 -19z m-1015 -248
c0 -7 -6 -15 -12 -17 -8 -3 -13 4 -13 17 0 13 5 20 13 18 6 -3 12 -11 12 -18z
m-585 -16 c0 -8 -4 -12 -10 -9 -5 3 -10 13 -10 21 0 8 5 12 10 9 6 -3 10 -13
10 -21z m1318 -16 c-2 -22 -9 -34 -20 -36 -15 -3 -18 4 -18 32 0 30 4 36 21
36 17 0 20 -5 17 -32z m-2528 13 c0 -5 3 -16 6 -25 4 -12 0 -16 -16 -16 -16 0
-20 4 -16 16 3 9 6 20 6 25 0 5 5 9 10 9 6 0 10 -4 10 -9z m-520 -76 c0 -22
-4 -25 -40 -25 -36 0 -40 3 -40 25 0 23 4 25 40 25 36 0 40 -2 40 -25z m370 5
c0 -13 -7 -20 -19 -20 -22 0 -35 15 -26 30 12 19 45 11 45 -10z m570 5 c0 -8
-9 -15 -20 -15 -11 0 -20 7 -20 15 0 8 9 15 20 15 11 0 20 -7 20 -15z m-120
-5 c0 -5 -7 -10 -15 -10 -8 0 -15 5 -15 10 0 6 7 10 15 10 8 0 15 -4 15 -10z
m1315 -38 c0 -18 -20 -15 -23 4 -3 10 1 15 10 12 7 -3 13 -10 13 -16z m245 -7
c0 -8 -7 -15 -15 -15 -8 0 -15 7 -15 15 0 8 7 15 15 15 8 0 15 -7 15 -15z
m-1325 -6 c10 -15 -1 -23 -20 -15 -9 3 -13 10 -10 16 8 13 22 13 30 -1z m2005
-83 c0 -33 -11 -38 -70 -30 -54 7 -69 24 -21 24 16 0 34 7 41 15 20 24 50 19
50 -9z m-562 -254 c3 -17 -2 -22 -17 -22 -16 0 -21 6 -21 26 0 33 33 30 38 -4z
m496 -167 c3 -8 1 -15 -4 -15 -6 0 -10 7 -10 15 0 8 2 15 4 15 2 0 6 -7 10
-15z m-114 -104 c0 -20 -6 -30 -20 -34 -17 -4 -20 0 -20 29 0 27 4 34 20 34
15 0 20 -7 20 -29z m380 -1 c0 -13 -7 -20 -20 -20 -13 0 -20 7 -20 20 0 13 7
20 20 20 13 0 20 -7 20 -20z m-690 -60 c0 -11 -4 -20 -10 -20 -5 0 -10 9 -10
20 0 11 5 20 10 20 6 0 10 -9 10 -20z m-756 -25 c3 -9 0 -15 -9 -15 -8 0 -15
7 -15 15 0 8 4 15 9 15 5 0 11 -7 15 -15z m-744 -20 c0 -8 -4 -15 -10 -15 -5
0 -10 7 -10 15 0 8 5 15 10 15 6 0 10 -7 10 -15z m2190 -35 c0 -15 -7 -20 -25
-20 -18 0 -25 5 -25 20 0 15 7 20 25 20 18 0 25 -5 25 -20z m-232 -28 c3 -17
-2 -22 -17 -22 -14 0 -21 6 -21 18 0 38 33 41 38 4z m-1458 3 c0 -8 -4 -15
-10 -15 -5 0 -10 7 -10 15 0 8 5 15 10 15 6 0 10 -7 10 -15z m-10 -100 c0 -14
-4 -25 -10 -25 -11 0 -14 33 -3 43 11 11 13 8 13 -18z m780 0 c0 -8 -7 -15
-15 -15 -9 0 -12 6 -9 15 4 8 10 15 15 15 5 0 9 -7 9 -15z m-1160 -55 c0 -10
-9 -24 -20 -30 -17 -9 -20 -8 -20 13 0 27 7 37 27 37 7 0 13 -9 13 -20z m-750
-5 c0 -8 -4 -15 -10 -15 -5 0 -10 7 -10 15 0 8 5 15 10 15 6 0 10 -7 10 -15z"/>
<path d="M1600 5595 l0 -75 110 0 110 0 0 70 0 70 -55 0 c-54 0 -55 -1 -55
-29 0 -16 -6 -31 -14 -34 -19 -8 -26 1 -26 34 0 19 -6 28 -22 33 -46 12 -48
10 -48 -69z"/>
<path d="M350 5420 l0 -60 240 0 240 0 0 60 0 60 -240 0 -240 0 0 -60z m310
24 c0 -8 -4 -12 -10 -9 -5 3 -10 10 -10 16 0 5 5 9 10 9 6 0 10 -7 10 -16z
m100 1 c0 -8 -7 -15 -15 -15 -8 0 -15 7 -15 15 0 8 7 15 15 15 8 0 15 -7 15
-15z"/>
<path d="M1150 5420 l0 -60 454 0 c453 0 454 0 459 21 3 12 10 18 17 14 6 -4
9 -13 6 -21 -5 -12 75 -14 525 -14 462 0 530 2 535 15 4 8 10 15 15 15 5 0 9
-7 9 -15 0 -13 27 -15 180 -15 l180 0 0 60 0 60 -1190 0 -1190 0 0 -60z m594
24 c9 -23 8 -24 -14 -24 -11 0 -20 2 -20 4 0 12 13 36 20 36 4 0 11 -7 14 -16z
m1776 2 c0 -16 -18 -31 -27 -22 -8 8 5 36 17 36 5 0 10 -6 10 -14z m-1510 -31
c0 -8 -7 -15 -15 -15 -8 0 -15 7 -15 15 0 8 7 15 15 15 8 0 15 -7 15 -15z
m815 -5 c-3 -5 -10 -10 -16 -10 -5 0 -9 5 -9 10 0 6 7 10 16 10 8 0 12 -4 9
-10z"/>
<path d="M3630 5415 l0 -65 93 0 c106 0 140 7 133 26 -6 16 10 28 24 19 8 -5
7 -11 -1 -21 -10 -12 32 -14 292 -15 167 -1 315 -2 329 -3 24 -1 25 2 28 62
l3 62 -451 0 -450 0 0 -65z m626 4 c8 -14 -11 -33 -25 -25 -11 7 -4 36 9 36 5
0 12 -5 16 -11z"/>
<path d="M1980 5245 l0 -75 110 0 110 0 0 75 0 75 -110 0 -110 0 0 -75z"/>
<path d="M2560 5251 c0 -84 -8 -81 193 -81 l148 0 -3 73 -3 72 -167 3 -168 2
0 -69z"/>
<path d="M3072 5248 l3 -73 428 -3 428 -2 -3 72 -3 73 -428 3 -428 2 3 -72z
m368 27 c0 -8 -4 -15 -10 -15 -5 0 -10 7 -10 15 0 8 5 15 10 15 6 0 10 -7 10
-15z"/>
<path d="M623 5133 c-21 -4 -23 -10 -23 -73 l0 -69 278 2 277 2 3 73 3 72
-258 -1 c-142 -1 -268 -4 -280 -6z m107 -84 c0 -24 -23 -21 -28 4 -2 10 3 17
12 17 10 0 16 -9 16 -21z m250 6 c0 -8 -4 -15 -10 -15 -5 0 -10 7 -10 15 0 8
5 15 10 15 6 0 10 -7 10 -15z"/>
<path d="M1433 5133 c-9 -3 -13 -27 -13 -69 l0 -64 189 0 c187 0 189 0 195 23
l7 22 11 -22 c10 -21 18 -23 80 -23 l68 0 0 70 0 70 -195 0 c-165 0 -197 -2
-201 -15 -4 -8 -12 -15 -19 -15 -7 0 -15 7 -19 15 -5 15 -74 20 -103 8z"/>
<path d="M2180 5069 l0 -69 265 0 265 0 0 70 0 70 -90 0 c-83 0 -90 -1 -90
-20 0 -11 -4 -20 -10 -20 -5 0 -10 6 -10 14 0 19 -61 27 -206 25 l-124 -1 0
-69z"/>
<path d="M2910 5068 l0 -68 290 0 290 0 0 68 0 67 -290 0 -290 0 0 -67z m507
-4 c-9 -9 -28 6 -21 18 4 6 10 6 17 -1 6 -6 8 -13 4 -17z"/>
<path d="M3610 5065 l0 -65 61 0 c52 0 60 2 55 16 -3 9 -6 38 -6 65 l0 49 -55
0 -55 0 0 -65z"/>
<path d="M3348 4577 l-3 -82 -357 -3 -358 -2 0 -65 0 -65 124 0 c98 0 126 3
136 15 13 16 35 21 26 6 -12 -18 50 -21 487 -21 l447 0 0 65 0 65 -160 0 -159
0 -3 83 -3 82 -87 2 -87 2 -3 -82z"/>
<path d="M1164 4475 c-3 -14 -3 -45 0 -70 l7 -45 400 0 399 0 0 64 c0 49 -4
65 -16 70 -9 3 -188 6 -400 6 l-384 0 -6 -25z m466 -70 c0 -8 -9 -15 -20 -15
-20 0 -26 11 -13 23 12 13 33 7 33 -8z m238 3 c-6 -18 -28 -21 -28 -4 0 9 7
16 16 16 9 0 14 -5 12 -12z"/>
<path d="M2160 4425 l0 -65 144 0 144 0 1 65 0 65 -144 0 -145 0 0 -65z"/>
<path d="M1838 4322 c-69 -2 -88 -6 -88 -17 0 -8 -9 -15 -20 -15 -11 0 -20 7
-20 15 0 12 -13 15 -60 15 l-61 0 3 -82 3 -83 1041 -3 1041 -2 6 46 c2 25 2
64 0 85 l-6 39 -516 1 c-284 0 -593 2 -688 4 l-172 3 -3 -52 -3 -51 -42 -3
-42 -3 -3 53 c-3 49 -5 53 -29 56 -15 2 -34 -4 -44 -14 -16 -16 -18 -16 -27
-1 -13 24 -59 22 -65 -3 -7 -25 -20 -26 -25 -2 -4 19 -16 20 -180 14z m942
-22 c0 -5 -4 -10 -10 -10 -5 0 -10 5 -10 10 0 6 5 10 10 10 6 0 10 -4 10 -10z
m-250 -61 c0 -10 -7 -19 -15 -19 -15 0 -21 31 -9 43 11 10 24 -3 24 -24z m330
-20 c0 -11 -4 -18 -10 -14 -5 3 -7 12 -3 20 7 21 13 19 13 -6z m520 -4 c0 -8
-4 -15 -10 -15 -5 0 -10 7 -10 15 0 8 5 15 10 15 6 0 10 -7 10 -15z m-970 -36
c0 -11 -4 -17 -10 -14 -5 3 -10 13 -10 21 0 8 5 14 10 14 6 0 10 -9 10 -21z"/>
<path d="M360 4240 l0 -80 225 0 226 0 -3 78 -3 77 -222 3 -223 3 0 -81z m290
15 c0 -19 -4 -35 -9 -35 -13 0 -18 20 -13 47 7 36 22 27 22 -12z m-134 -16
c10 -17 -13 -36 -27 -22 -12 12 -4 33 11 33 5 0 12 -5 16 -11z"/>
<path d="M3936 4313 l-58 -4 6 -37 c3 -20 6 -56 6 -79 l0 -43 60 0 60 0 0 85
c0 47 -3 84 -7 83 -5 -1 -34 -3 -67 -5z"/>
<path d="M970 4230 l0 -80 63 0 63 0 1 80 0 80 -64 0 -63 0 0 -80z"/>
<path d="M950 4048 c0 -111 -2 -108 106 -108 l94 0 0 85 0 85 -100 0 -100 0 0
-62z"/>
<path d="M3890 4040 l0 -70 60 0 60 0 0 70 0 70 -60 0 -60 0 0 -70z"/>
<path d="M360 3875 l0 -65 45 0 45 0 0 65 0 65 -45 0 -45 0 0 -65z"/>
<path d="M520 3870 l0 -70 45 0 45 0 0 70 0 70 -45 0 -45 0 0 -70z"/>
<path d="M1190 3675 l0 -75 85 0 85 0 0 75 0 75 -85 0 -85 0 0 -75z m120 40
c0 -8 -4 -15 -10 -15 -5 0 -10 7 -10 15 0 8 5 15 10 15 6 0 10 -7 10 -15z"/>
<path d="M1422 3678 l3 -73 73 -3 72 -3 0 76 0 75 -75 0 -76 0 3 -72z"/>
<path d="M1972 3683 l3 -68 98 -3 97 -3 0 -79 0 -80 755 0 c743 0 755 0 755
20 0 17 -8 19 -72 22 l-73 3 -3 45 -3 45 -69 -3 c-65 -3 -70 -2 -70 17 0 19 6
21 54 21 l55 0 6 44 c4 24 5 52 3 62 -3 18 -30 19 -771 22 l-768 2 3 -67z
m348 17 c0 -20 -5 -30 -15 -30 -29 0 -18 50 13 59 1 1 2 -12 2 -29z m180 -20
c0 -13 -7 -20 -20 -20 -13 0 -20 7 -20 20 0 13 7 20 20 20 13 0 20 -7 20 -20z
m276 -56 c-3 -9 -6 -23 -6 -33 0 -10 -8 -17 -20 -17 -16 0 -20 7 -20 33 0 29
3 33 26 33 20 0 25 -4 20 -16z m-276 -104 c0 -33 -3 -40 -20 -40 -21 0 -27 30
-14 64 13 33 34 17 34 -24z m580 0 c0 -5 -4 -10 -10 -10 -5 0 -10 5 -10 10 0
6 5 10 10 10 6 0 10 -4 10 -10z m-410 -20 c0 -11 -7 -20 -15 -20 -8 0 -15 9
-15 20 0 11 7 20 15 20 8 0 15 -9 15 -20z"/>
<path d="M3680 3675 l0 -75 100 0 100 0 0 75 0 75 -100 0 -100 0 0 -75z m80
-19 c0 -8 -4 -18 -10 -21 -5 -3 -10 3 -10 14 0 12 5 21 10 21 6 0 10 -6 10
-14z"/>
<path d="M4052 3673 l3 -78 65 -3 c36 -2 68 -8 72 -15 4 -7 8 -38 8 -69 l0
-58 165 0 165 0 0 65 0 65 -70 0 c-68 0 -70 1 -70 25 0 24 2 25 70 25 l70 0 0
60 0 60 -240 0 -241 0 3 -77z"/>
<path d="M1073 3583 l-83 -4 0 -64 0 -65 95 0 95 0 1 38 c1 20 2 50 3 67 1 34
6 33 -111 28z"/>
<path d="M1594 3576 c-3 -7 -4 -38 -2 -67 l3 -54 108 -3 107 -3 0 64 0 64 -37
7 c-71 11 -173 7 -179 -8z"/>
<path d="M320 3516 l0 -64 50 -4 50 -3 0 68 0 67 -50 0 -50 0 0 -64z"/>
<path d="M4290 3385 c0 -22 -4 -25 -35 -25 l-35 0 0 -55 0 -55 75 0 75 0 0 80
0 80 -40 0 c-36 0 -40 -2 -40 -25z"/>
</g>
</svg>
